<svg width="147" height="201" viewBox="0 0 147 201" fill="none" xmlns="http://www.w3.org/2000/svg">
<path d="M145.448 0C146.313 0 147 0.701998 147 1.55175V36.4729V86.3498V150.266C147 150.702 146.852 151.138 146.542 151.441C146.254 151.714 146.128 152.062 146.128 152.453C146.128 152.468 146.254 152.571 146.254 152.571H144.502C144.502 152.571 144.51 152.498 144.51 152.49C144.51 151.611 143.527 150.828 142.33 150.828C141.133 150.828 140.15 151.567 140.15 152.446C140.15 152.461 140.158 152.579 140.158 152.579H138.406C138.406 152.579 138.414 152.505 138.414 152.498C138.414 151.618 137.431 150.835 136.234 150.835C135.022 150.835 134.054 151.574 134.054 152.453C134.054 152.468 134.062 152.586 134.062 152.586H132.31C132.31 152.586 132.318 152.512 132.318 152.505C132.318 151.626 131.335 150.842 130.138 150.842C128.941 150.842 127.958 151.581 127.958 152.461C127.958 152.475 127.965 152.594 127.965 152.594H126.214C126.214 152.594 126.222 152.52 126.222 152.512C126.222 151.633 125.239 150.85 124.042 150.85C122.837 150.85 121.862 151.589 121.862 152.468C121.862 152.483 121.869 152.601 121.869 152.601H120.118C120.118 152.601 120.126 152.527 120.126 152.52C120.126 151.64 119.143 150.857 117.946 150.857C116.749 150.857 115.766 151.596 115.766 152.475C115.766 152.49 115.773 152.608 115.773 152.608H114.022C114.022 152.608 114.03 152.535 114.03 152.527C114.03 151.648 113.047 150.865 111.85 150.865C110.638 150.865 109.67 151.603 109.67 152.483C109.67 152.498 109.677 152.616 109.677 152.616H107.926C107.926 152.616 107.933 152.542 107.933 152.535C107.933 151.655 106.951 150.872 105.754 150.872C104.542 150.872 103.574 151.611 103.574 152.49C103.574 152.505 103.581 152.623 103.581 152.623H101.83C101.83 152.623 101.837 152.549 101.837 152.542C101.837 151.663 100.855 150.879 99.6576 150.879C98.4606 150.879 97.4778 151.618 97.4778 152.498C97.4778 152.512 97.4852 152.631 97.4852 152.631H95.734C95.734 152.631 95.7413 152.557 95.7413 152.549C95.7413 151.67 94.7586 150.887 93.5616 150.887C92.3498 150.887 91.3818 151.626 91.3818 152.505C91.3818 152.52 91.3892 152.638 91.3892 152.638H89.6379C89.6379 152.638 89.6453 152.564 89.6453 152.557C89.6453 151.677 88.6626 150.894 87.4655 150.894C86.2537 150.894 85.2857 151.633 85.2857 152.512C85.2857 152.527 85.2931 152.645 85.2931 152.645H83.5419C83.5419 152.645 83.5492 152.571 83.5492 152.564C83.5492 151.685 82.5665 150.901 81.3695 150.901C80.1576 150.901 79.1897 151.64 79.1897 152.52C79.1897 152.535 79.197 152.653 79.197 152.653H77.4088C77.4088 152.653 77.4162 152.579 77.4162 152.571C77.4162 151.692 76.4335 150.909 75.2364 150.909C74.0246 150.909 73.0567 151.648 73.0567 152.527C73.0567 152.542 73.064 152.66 73.064 152.66H71.3128C71.3128 152.66 71.3202 152.586 71.3202 152.579C71.3202 151.7 70.3374 150.916 69.1404 150.916C67.9285 150.916 66.9606 151.655 66.9606 152.535C66.9606 152.549 66.9679 152.668 66.9679 152.668H65.2167C65.2167 152.668 65.2241 152.594 65.2241 152.586C65.2241 151.707 64.2413 150.924 63.0443 150.924C61.8325 150.924 60.8645 151.663 60.8645 152.542C60.8645 152.557 60.8719 152.675 60.8719 152.675H59.1207C59.1207 152.675 59.1281 152.601 59.1281 152.594C59.1281 151.714 58.1453 150.931 56.9482 150.931C55.7364 150.931 54.7685 151.67 54.7685 152.549C54.7685 152.564 54.7758 152.682 54.7758 152.682H53.0246C53.0246 152.682 53.032 152.608 53.032 152.601C53.032 151.722 52.0492 150.938 50.8522 150.938C49.6404 150.938 48.6724 151.677 48.6724 152.557C48.6724 152.571 48.6798 152.69 48.6798 152.69H46.9285C46.9285 152.69 46.9359 152.616 46.9359 152.608C46.9359 151.729 45.9532 150.946 44.7561 150.946C43.5443 150.946 42.5764 151.685 42.5764 152.564C42.5764 152.579 42.5837 152.697 42.5837 152.697H40.8103C40.8103 152.697 40.8177 152.623 40.8177 152.616C40.8177 151.737 39.835 150.953 38.6379 150.953C37.4261 150.953 36.4581 151.692 36.4581 152.571C36.4581 152.586 36.4655 152.704 36.4655 152.704H34.7143C34.7143 152.704 34.7217 152.631 34.7217 152.623C34.7217 151.744 33.7389 150.961 32.5419 150.961C31.33 150.961 30.362 151.7 30.362 152.579C30.362 152.594 30.3694 152.712 30.3694 152.712H28.6182C28.6182 152.712 28.6256 152.638 28.6256 152.631C28.6256 151.751 27.6428 150.968 26.4458 150.968C25.234 150.968 24.266 151.707 24.266 152.586C24.266 152.601 24.2734 152.719 24.2734 152.719H22.5222C22.5222 152.719 22.5296 152.645 22.5296 152.638C22.5296 151.759 21.5468 150.975 20.3497 150.975C19.1379 150.975 18.1699 151.714 18.1699 152.594C18.1699 152.608 18.1773 152.727 18.1773 152.727H16.4261C16.4261 152.727 16.4335 152.653 16.4335 152.645C16.4335 151.766 15.4507 150.983 14.2537 150.983C13.0419 150.983 12.0739 151.722 12.0739 152.601C12.0739 152.616 12.0813 152.734 12.0813 152.734H10.33C10.33 152.734 10.3374 152.66 10.3374 152.653C10.3374 151.773 9.35466 150.99 8.15762 150.99C6.9458 150.99 5.97781 151.729 5.97781 152.608C5.97781 152.623 5.9852 152.741 5.9852 152.741H3.931C3.931 152.741 3.93839 152.667 3.93839 152.66C3.93839 151.781 2.83741 150.998 1.63298 150.998C1.62559 150.998 1.61818 150.998 1.61818 150.998C0.731484 151.005 0 150.325 0 149.446V86.3572V36.2734V1.5591C0 0.694571 0.701953 0.00739638 1.55171 0.00739638L145.448 0Z" fill="#FFCDA4"/>
<path d="M0.34729 182.564V188.032V195.99C0.34729 198.687 3.54681 201 7.56652 201H58.3374C58.3374 201 58.3374 200.911 58.3374 200.904C58.3374 196.677 63.4581 193.204 69.7759 193.204C76.0862 193.204 81.2143 196.685 81.2143 200.919C81.2143 200.934 81.2143 201 81.2143 201H140.025C144.044 201 146.948 198.687 146.948 195.99V188.032V182.564V153.111H0.34729C0.34729 153.103 0.34729 182.564 0.34729 182.564Z" fill="#260700"/>
<path d="M100.633 93.0739H98.9409V124.995H100.633V93.0739Z" fill="#260700"/>
<path d="M97.5222 93.0739H95.83V124.995H97.5222V93.0739Z" fill="#260700"/>
<path d="M91.1749 93.0739H89.4828V124.995H91.1749V93.0739Z" fill="#260700"/>
<path d="M72.3768 93.0739H70.6847V124.995H72.3768V93.0739Z" fill="#260700"/>
<path d="M69.0074 93.0739H67.3153V124.995H69.0074V93.0739Z" fill="#260700"/>
<path d="M65.564 93.0739H60.7315V124.995H65.564V93.0739Z" fill="#260700"/>
<path d="M57.4581 93.0739H55.9433V124.995H57.4581V93.0739Z" fill="#260700"/>
<path d="M54.3177 93.0739H52.8029V124.995H54.3177V93.0739Z" fill="#260700"/>
<path d="M51.303 93.0739H49.7881V124.995H51.303V93.0739Z" fill="#260700"/>
<path d="M47.8596 93.0739H46.3448V124.995H47.8596V93.0739Z" fill="#260700"/>
<path d="M87.2881 93.0739H85.596V124.995H87.2881V93.0739Z" fill="#260700"/>
<path d="M83.9409 93.0739H79.2857V124.995H83.9409V93.0739Z" fill="#260700"/>
<path d="M77.202 93.0739H76.4926V124.995H77.202V93.0739Z" fill="#260700"/>
<path d="M75.5912 93.0739H74.8818V124.995H75.5912V93.0739Z" fill="#260700"/>
<path d="M74.2315 93.0739H73.5222V124.995H74.2315V93.0739Z" fill="#260700"/>
<path d="M55.6033 78.0862V76.1686L62.805 68.2851C63.6502 67.3618 64.3462 66.5592 64.8931 65.8774C65.44 65.1885 65.8448 64.5422 66.1076 63.9385C66.3775 63.3277 66.5124 62.6885 66.5124 62.0209C66.5124 61.2538 66.3278 60.5898 65.9585 60.0287C65.5962 59.4676 65.0991 59.0344 64.467 58.729C63.8349 58.4236 63.1246 58.2709 62.3363 58.2709C61.4982 58.2709 60.7667 58.4449 60.1417 58.7929C59.5238 59.1338 59.0444 59.6132 58.7035 60.2311C58.3697 60.849 58.2028 61.5734 58.2028 62.4044H55.6886C55.6886 61.126 55.9833 60.0038 56.5728 59.0379C57.1623 58.072 57.9648 57.3192 58.9805 56.7794C60.0032 56.2396 61.1502 55.9697 62.4215 55.9697C63.6999 55.9697 64.8327 56.2396 65.82 56.7794C66.8072 57.3192 67.5813 58.0471 68.1424 58.9633C68.7035 59.8795 68.984 60.8987 68.984 62.0209C68.984 62.8234 68.8384 63.6082 68.5472 64.3753C68.2631 65.1352 67.766 65.9839 67.0558 66.9214C66.3526 67.8518 65.3761 68.9882 64.1261 70.3305L59.2255 75.572V75.7425H69.3675V78.0862H55.6033ZM80.5856 78.3845C79.3356 78.3845 78.2099 78.1359 77.2085 77.6388C76.207 77.1416 75.4045 76.4598 74.8008 75.5933C74.1971 74.7268 73.8668 73.7396 73.81 72.6317H76.3668C76.4663 73.6189 76.9137 74.4356 77.7092 75.082C78.5117 75.7212 79.4705 76.0408 80.5856 76.0408C81.4805 76.0408 82.2759 75.8312 82.9719 75.4122C83.6751 74.9932 84.2255 74.4179 84.6232 73.6864C85.0281 72.9477 85.2305 72.1132 85.2305 71.1828C85.2305 70.2311 85.021 69.3824 84.6019 68.6366C84.19 67.8838 83.6218 67.2908 82.8974 66.8575C82.1729 66.4243 81.3455 66.2041 80.4151 66.197C79.7475 66.1899 79.0621 66.2929 78.359 66.506C77.6559 66.7119 77.0771 66.9783 76.6225 67.305L74.1509 67.0067L75.4719 56.268H86.8072V58.6118H77.6879L76.9208 65.0464H77.0487C77.4961 64.6913 78.0572 64.3966 78.7319 64.1622C79.4066 63.9278 80.1097 63.8106 80.8413 63.8106C82.1765 63.8106 83.3661 64.1302 84.4102 64.7695C85.4613 65.4016 86.2852 66.268 86.8818 67.3689C87.4854 68.4697 87.7873 69.7268 87.7873 71.1402C87.7873 72.5322 87.4748 73.7751 86.8498 74.8689C86.2319 75.9555 85.3796 76.8149 84.293 77.447C83.2063 78.072 81.9705 78.3845 80.5856 78.3845Z" fill="#260700"/>
</svg>
