<svg width="50" height="50" viewBox="0 0 50 50" fill="none" xmlns="http://www.w3.org/2000/svg">
<path d="M25 50C38.8071 50 50 38.8071 50 25C50 11.1929 38.8071 0 25 0C11.1929 0 0 11.1929 0 25C0 38.8071 11.1929 50 25 50Z" fill="#16DD00"/>
<path d="M25 50C11.2125 50 0 38.7875 0 25C0 11.2125 11.2125 0 25 0C38.7875 0 50 11.2125 50 25C50 38.7875 38.7875 50 25 50ZM25 1.71875C12.1625 1.71875 1.71875 12.1625 1.71875 25C1.71875 37.8375 12.1625 48.2812 25 48.2812C37.8375 48.2812 48.2812 37.8375 48.2812 25C48.2812 12.1625 37.8375 1.71875 25 1.71875Z" fill="white"/>
<path d="M19.9626 30.3125C20.7376 31.0875 22.3126 32.5688 23.3876 32.8313C24.4626 33.0938 25.2501 32.4938 26.0938 31.775C26.5313 31.4 26.7313 30.9625 27.8001 30.7688C28.9063 30.5688 32.0251 32.6438 32.7751 33.5313C35.0501 36.225 33.0126 39.25 29.9376 39.5063C26.1376 39.825 21.0688 36.3625 17.4938 32.7938C13.9188 29.2188 10.4626 24.1563 10.7813 20.35C11.0376 17.275 14.0563 15.2375 16.7563 17.5125C17.6438 18.2625 19.7126 21.3813 19.5188 22.4875C19.3251 23.5563 18.8876 23.75 18.5126 24.1938C17.7938 25.0313 17.1938 25.825 17.4563 26.9C17.7063 27.9625 19.1876 29.5313 19.9626 30.3125Z" fill="white"/>
<path d="M30.2564 26.5625C29.9064 26.5062 29.5814 26.1937 29.5064 25.825C28.9876 23.0875 27.0251 21.075 24.2626 20.4437C23.8751 20.3562 23.5564 19.9687 23.5501 19.5875C23.5439 19.2 23.8626 18.9687 24.2439 19.05C27.6876 19.8375 30.2314 22.4562 30.8814 25.8875C30.9564 26.2812 30.7064 26.5875 30.3251 26.5687C30.3126 26.5687 30.2814 26.5687 30.2564 26.5625Z" fill="white"/>
<path d="M34.5126 27.3188C34.1376 27.2625 33.8064 26.9125 33.7564 26.5313C33.0564 20.9125 29.6814 17.2688 23.9939 16C23.6064 15.9125 23.2876 15.5313 23.2814 15.1438C23.2751 14.7563 23.6002 14.5188 23.9752 14.6C30.3939 16.0313 34.3689 20.325 35.1564 26.6875C35.2064 27.0813 34.9314 27.3625 34.5501 27.3188C34.5314 27.325 34.5189 27.325 34.5126 27.3188Z" fill="white"/>
<path d="M38.6 27.9625C38.2438 27.9063 37.9125 27.5813 37.85 27.2063C36.3063 18.0188 32.0688 13.4438 23.675 11.9C23.2875 11.8313 22.9563 11.4563 22.9313 11.0688C22.9063 10.6813 23.1938 10.425 23.5938 10.4938C32.7438 12.175 37.5688 17.3625 39.2375 27.3063C39.3063 27.7 39.05 28 38.6625 27.975C38.6438 27.9625 38.625 27.9625 38.6 27.9625Z" fill="white"/>
<path d="M25 50C11.2125 50 0 38.7875 0 25C0 11.2125 11.2125 0 25 0C38.7875 0 50 11.2125 50 25C50 38.7875 38.7875 50 25 50ZM25 1.71875C12.1625 1.71875 1.71875 12.1625 1.71875 25C1.71875 37.8375 12.1625 48.2812 25 48.2812C37.8375 48.2812 48.2812 37.8375 48.2812 25C48.2812 12.1625 37.8375 1.71875 25 1.71875Z" fill="white"/>
<path d="M19.9626 30.3125C20.7376 31.0875 22.3126 32.5688 23.3876 32.8313C24.4626 33.0938 25.2501 32.4938 26.0938 31.775C26.5313 31.4 26.7313 30.9625 27.8001 30.7688C28.9063 30.5688 32.0251 32.6438 32.7751 33.5313C35.0501 36.225 33.0126 39.25 29.9376 39.5063C26.1376 39.825 21.0688 36.3625 17.4938 32.7938C13.9188 29.2188 10.4626 24.1563 10.7813 20.35C11.0376 17.275 14.0563 15.2375 16.7563 17.5125C17.6438 18.2625 19.7126 21.3813 19.5188 22.4875C19.3251 23.5563 18.8876 23.75 18.5126 24.1938C17.7938 25.0313 17.1938 25.825 17.4563 26.9C17.7063 27.9625 19.1876 29.5313 19.9626 30.3125Z" fill="white"/>
<path d="M30.2564 26.5625C29.9064 26.5062 29.5814 26.1937 29.5064 25.825C28.9876 23.0875 27.0251 21.075 24.2626 20.4437C23.8751 20.3562 23.5564 19.9687 23.5501 19.5875C23.5439 19.2 23.8626 18.9687 24.2439 19.05C27.6876 19.8375 30.2314 22.4562 30.8814 25.8875C30.9564 26.2812 30.7064 26.5875 30.3251 26.5687C30.3126 26.5687 30.2814 26.5687 30.2564 26.5625Z" fill="white"/>
<path d="M34.5126 27.3188C34.1376 27.2625 33.8064 26.9125 33.7564 26.5313C33.0564 20.9125 29.6814 17.2688 23.9939 16C23.6064 15.9125 23.2876 15.5313 23.2814 15.1438C23.2751 14.7563 23.6002 14.5188 23.9752 14.6C30.3939 16.0313 34.3689 20.325 35.1564 26.6875C35.2064 27.0813 34.9314 27.3625 34.5501 27.3188C34.5314 27.325 34.5189 27.325 34.5126 27.3188Z" fill="white"/>
<path d="M38.6 27.9625C38.2438 27.9063 37.9125 27.5813 37.85 27.2063C36.3063 18.0188 32.0688 13.4438 23.675 11.9C23.2875 11.8313 22.9563 11.4563 22.9313 11.0688C22.9063 10.6813 23.1938 10.425 23.5938 10.4938C32.7438 12.175 37.5688 17.3625 39.2375 27.3063C39.3063 27.7 39.05 28 38.6625 27.975C38.6438 27.9625 38.625 27.9625 38.6 27.9625Z" fill="white"/>
</svg>
